<svg version="1.1" xmlns="http://www.w3.org/2000/svg">
	<defs>
		<symbol id="facebook-icon" viewBox="0 0 12 23.1">
            <path d="M12,3.8H9.8c-1.7,0-2,.8-2,2V8.5h4.1l-0.5,4.1H7.8V23.1H3.5V12.6H0V8.5H3.5v-3C3.5,1.9,5.7,0,8.8,0L12,0.2V3.8Z" />
        </symbol>

		<symbol id="twitter-icon" viewBox="0 0 12 9.7">
		    <path d="M10.8,2.4c0,0.1,0,.2,0,0.3a6.9,6.9,0,0,1-7,7A7,7,0,0,1,0,8.6H0.6A4.9,4.9,0,0,0,3.6,7.6,2.5,2.5,0,0,1,1.3,5.9H2.5a2.5,2.5,0,0,1-2-2.4h0L1.6,3.7A2.5,2.5,0,0,1,.8.4,7,7,0,0,0,5.9,3a2.8,2.8,0,0,1-.1-0.6A2.5,2.5,0,0,1,10.1.8,4.8,4.8,0,0,0,11.7.2a2.5,2.5,0,0,1-1.1,1.4L12,1.2A5.3,5.3,0,0,1,10.8,2.4Z" />
		</symbol>

		<symbol id="instagram-icon" viewBox="0 0 12 12">
		    <path d="M12,10.5A1.5,1.5,0,0,1,10.5,12H1.5A1.5,1.5,0,0,1,0,10.5V1.5A1.5,1.5,0,0,1,1.5,0h8.9A1.5,1.5,0,0,1,12,1.5v8.9ZM10.6,5.1H9.6a3.4,3.4,0,0,1,.2,1A3.7,3.7,0,0,1,6,9.7,3.7,3.7,0,0,1,2.3,6.1a3.4,3.4,0,0,1,.2-1H1.3v5.1a0.5,0.5,0,0,0,.5.5h8.4a0.5,0.5,0,0,0,.5-0.5V5.1ZM6,3.6A2.4,2.4,0,0,0,3.6,6,2.4,2.4,0,0,0,6,8.3,2.4,2.4,0,0,0,8.4,6,2.4,2.4,0,0,0,6,3.6Zm4.6-1.8a0.5,0.5,0,0,0-.5-0.5H8.7a0.5,0.5,0,0,0-.5.5V3.2a0.5,0.5,0,0,0,.5.5h1.4a0.5,0.5,0,0,0,.5-0.5V1.9Z" />
		</symbol>

		<symbol id="google-plus-icon" viewBox="0 0 12 7.6">
		    <path d="M3.8,7.6A3.8,3.8,0,0,1,3.8,0,3.6,3.6,0,0,1,6.4,1l-1,1a2.1,2.1,0,0,0-1.5-.6A2.4,2.4,0,0,0,1.5,3.8,2.4,2.4,0,0,0,3.8,6.2,2.1,2.1,0,0,0,6,4.6H3.8V3.3H7.4a3.2,3.2,0,0,1,.1.6A3.5,3.5,0,0,1,3.8,7.6ZM12,4.4H10.9V5.5H9.8V4.4H8.7V3.3H9.8V2.2h1.1V3.3H12V4.4Z" />
		</symbol>

		<symbol id="linkedin-icon" viewBox="0 0 12 11.5">
		    <path d="M1.4,2.7h0A1.3,1.3,0,0,1,0,1.3,1.3,1.3,0,0,1,1.5,0,1.3,1.3,0,0,1,2.9,1.3,1.3,1.3,0,0,1,1.4,2.7Zm1.3,8.8H0.1V3.7H2.7v7.7Zm9.3,0H9.4V7.3c0-1-.4-1.7-1.3-1.7a1.4,1.4,0,0,0-1.3.9,1.9,1.9,0,0,0-.1.6v4.3H4.1c0-7,0-7.7,0-7.7H6.7V4.9h0A2.6,2.6,0,0,1,9,3.5c1.7,0,3,1.1,3,3.5v4.4Z" />
		</symbol>

		<symbol id="github-icon" viewBox="0 0 12 10.2">
		    <path d="M11.6,8c-1,1.9-3.6,2.1-5.4,2.1S1.4,10,.4,8A5.3,5.3,0,0,1,0,5.7,4.3,4.3,0,0,1,1,2.8,4,4,0,0,1,.8,1.6,3.5,3.5,0,0,1,1.2,0,4.2,4.2,0,0,1,3.9,1.2l2.2-.3,2,0.2A4.1,4.1,0,0,1,10.8,0a3.5,3.5,0,0,1,.4,1.6A3.8,3.8,0,0,1,11,2.8a4.3,4.3,0,0,1,1,2.9A5.4,5.4,0,0,1,11.6,8Zm-3-3.2L7.1,5H4.9L3.5,4.8A1.9,1.9,0,0,0,1.6,6.9c0,2.2,2,2.5,3.8,2.5H6.6c1.8,0,3.8-.3,3.8-2.5A1.9,1.9,0,0,0,8.5,4.8ZM3.7,8.3a1.3,1.3,0,0,1-.9-1.4,1.3,1.3,0,0,1,.9-1.4,1.3,1.3,0,0,1,.9,1.4A1.3,1.3,0,0,1,3.7,8.3Zm4.6,0a1.3,1.3,0,0,1-.9-1.4,1.3,1.3,0,0,1,.9-1.4,1.3,1.3,0,0,1,.9,1.4A1.3,1.3,0,0,1,8.3,8.3Z" />
		</symbol>

		<symbol id="codepen-icon" viewBox="0 0 12 12">
		    <path d="M12,7.8a0.5,0.5,0,0,1-.2.4L6.3,11.9H5.7L0.2,8.3A0.5,0.5,0,0,1,0,7.8V4.2A0.5,0.5,0,0,1,.2,3.7L5.7,0.1H6.3l5.5,3.7a0.5,0.5,0,0,1,.2.4V7.8ZM2.3,6L1,5.1V6.9ZM5.5,3.9V1.5l-4,2.7L3.2,5.4Zm0,6.6V8.1L3.2,6.6,1.4,7.8ZM7.8,6L6,4.8,4.2,6,6,7.2Zm2.7-1.8-4-2.7V3.9L8.8,5.4Zm0,3.7L8.8,6.6,6.5,8.1v2.4Zm0.4-1V5.1L9.7,6Z" />
		</symbol>

		<symbol id="stack-overflow-icon" viewBox="0 0 12 14.2">
		    <path d="M10.1,12.9V9.1h1.3v5.1H0V9.1H1.3v3.8h8.9ZM2.5,11.7H8.9V10.4H2.5v1.3ZM2.7,8.8l6.2,1.3L9.1,8.8,2.9,7.5Zm0.8-3L9.2,8.5,9.8,7.3,4,4.7ZM5.1,3L9.9,7.1l0.8-1L5.9,2ZM8.2,0l-1,.8L11,5.8l1-.8Z" />
		</symbol>

		<symbol id="dribbble-icon" viewBox="0 0 12 12">
		    <path d="M6,12a6,6,0,1,1,6-6A6,6,0,0,1,6,12ZM6.1,5.1a18.8,18.8,0,0,1-5.3.7A1.2,1.2,0,0,0,.9,6,5.1,5.1,0,0,0,2.2,9.4,8.1,8.1,0,0,1,6.4,6H6.6ZM3.8,1.4A5.1,5.1,0,0,0,1,4.9a19.4,19.4,0,0,0,4.7-.6A31,31,0,0,0,3.8,1.4ZM6.9,6.8h0s-3,1.1-4,3.2H2.7a5.1,5.1,0,0,0,5.3.8A21.6,21.6,0,0,0,6.9,6.8ZM4.8,1h0ZM6,0.9H4.8A25,25,0,0,1,6.7,4,5.5,5.5,0,0,0,9.4,2.2,5.1,5.1,0,0,0,6,.9Zm4,1.9a6.7,6.7,0,0,1-2.9,2L7.4,5.5V5.8a12,12,0,0,1,3.6.2A5.1,5.1,0,0,0,10,2.7ZM7.9,6.6a22.9,22.9,0,0,1,1,3.7,5.1,5.1,0,0,0,2.2-3.4A7.6,7.6,0,0,0,7.9,6.6Z" />
		</symbol>

		<symbol id="youtube-icon" viewBox="0 0 12 14.5">
		    <path d="M11.8,13.2a1.5,1.5,0,0,1-1.3,1.2,39.6,39.6,0,0,1-4.5.2,39.6,39.6,0,0,1-4.5-.2A1.5,1.5,0,0,1,.2,13.2,12.8,12.8,0,0,1,0,10.3,13.2,13.2,0,0,1,.2,7.5,1.5,1.5,0,0,1,1.5,6.3,41.4,41.4,0,0,1,6,6.2a41.6,41.6,0,0,1,4.5.2,1.5,1.5,0,0,1,1.3,1.2,12.7,12.7,0,0,1,.2,2.8A13.3,13.3,0,0,1,11.8,13.2ZM3.4,8.3V7.6H0.9V8.3H1.7v4.6H2.6V8.3H3.4ZM4.7,0l-1,3.2V5.4H3V3.2a12.9,12.9,0,0,0-.5-1.7L1.9,0H2.8L3.4,2.1,3.9,0H4.7ZM5.6,12.9v-4H4.9V12a0.6,0.6,0,0,1-.5.3l-0.2-.2a1.9,1.9,0,0,1,0-.3V8.9H3.5v3.2a2,2,0,0,0,.1.6,0.4,0.4,0,0,0,.5.3,1.2,1.2,0,0,0,.8-0.5v0.4H5.6ZM6.9,4.1a1.6,1.6,0,0,1-.2,1,1,1,0,0,1-.9.4A1,1,0,0,1,5,5.1a1.6,1.6,0,0,1-.2-1V2.7A1.6,1.6,0,0,1,5,1.7a1,1,0,0,1,.9-0.4,1,1,0,0,1,.9.4,1.6,1.6,0,0,1,.2.9V4.1ZM6.2,2.6C6.2,2.2,6.1,2,5.8,2s-0.3.2-.3,0.6V4.3c0,0.4.1,0.6,0.3,0.6s0.3-.2.3-0.6V2.6Zm2.2,7.6a2.8,2.8,0,0,0-.1-0.8,0.6,0.6,0,0,0-.6-0.5,1,1,0,0,0-.8.4V7.6H6.2v5.4H7V12.5a1,1,0,0,0,.8.4,0.6,0.6,0,0,0,.6-0.4,2.9,2.9,0,0,0,.1-0.8V10.1ZM7.6,11.8c0,0.4-.1.5-0.3,0.5L7,12.1V9.7l0.4-.2c0.2,0,.3.2,0.3,0.5v1.7Zm2-6.4H8.9V5a1.2,1.2,0,0,1-.8.5,0.5,0.5,0,0,1-.5-0.3,2.1,2.1,0,0,1-.1-0.6V1.4H8.3v3a1.8,1.8,0,0,0,0,.3,0.2,0.2,0,0,0,.2.2,0.6,0.6,0,0,0,.5-0.3V1.4H9.6v4Zm1.5,6.1H10.4a4.3,4.3,0,0,1,0,.5,0.3,0.3,0,0,1-.3.3c-0.3,0-.4-0.2-0.4-0.6V11.1h1.4V10.2a1.6,1.6,0,0,0-.2-0.9,1.1,1.1,0,0,0-1.7,0,1.5,1.5,0,0,0-.2.9v1.4a1.5,1.5,0,0,0,.2.9,1,1,0,0,0,.9.4,1,1,0,0,0,.9-0.4,0.9,0.9,0,0,0,.2-0.4,3.2,3.2,0,0,0,0-.5h0Zm-0.7-1.1H9.7V10.1c0-.4.1-0.6,0.4-0.6s0.4,0.2.4,0.6v0.4Z" />
		</symbol>

		<symbol id="vimeo-icon" viewBox="0 0 12 10.4">
		    <path d="M9.5,7.2c-1.6,2.1-3,3.2-4.1,3.2S4.1,9.7,3.6,8.4l-1-3.6C2.3,3.6,1.9,3,1.5,3l-0.9.6L0,2.8,1.8,1.2A3.8,3.8,0,0,1,3.5.2C4.5,0.1,5,.7,5.3,2.1s0.4,2.4.5,2.7,0.6,1.8.9,1.8A2.3,2.3,0,0,0,7.8,5.5a4.7,4.7,0,0,0,.8-1.8,0.8,0.8,0,0,0-.8-1l-0.9.2Q7.8-.1,10.3,0c1.2,0,1.8.8,1.7,2.4S11.1,5.2,9.5,7.2Z" />
		</symbol>

		<symbol id="vine-icon" viewBox="0 0 12 13.7">
		    <path d="M12,8.4l-1.6.2a13.8,13.8,0,0,1-3.9,4.9,1.2,1.2,0,0,1-1.3,0C4.3,13,1.1,10.3,0,2.1H2.3c0.6,5,2,7.5,3.6,9.4A12.9,12.9,0,0,0,8.3,8.1,5,5,0,0,1,5.8,3.6C5.8,1.5,7,0,9,0s3,1.2,3,3.3a6,6,0,0,1-.5,2.4s-1.4.3-2-.6a5.7,5.7,0,0,0,.3-1.5c0-1-.4-1.5-0.9-1.5s-1,.5-1,1.6A3,3,0,0,0,11,6.9h1V8.4Z" />
		</symbol>

		<symbol id="steam-icon" viewBox="0 0 12 10.3">
		    <path d="M9,6.1L6,8.2a2.3,2.3,0,0,1-4.5.3L0,7.9V5L2.6,6.1a2.2,2.2,0,0,1,1.2-.3H4L5.9,3A3.1,3.1,0,1,1,9,6.1Zm-5.2.2H3.4L4.1,6.7a1.3,1.3,0,1,1-1,2.5L2.3,8.8A1.7,1.7,0,1,0,3.8,6.3ZM9,1a2,2,0,1,0,2,2A2,2,0,0,0,9,1ZM9,4.7A1.6,1.6,0,1,1,10.6,3,1.6,1.6,0,0,1,9,4.7Z" />
		</symbol>

		<symbol id="steam-icon" viewBox="0 0 12 10.3">
		    <path d="M9,6.1L6,8.2a2.3,2.3,0,0,1-4.5.3L0,7.9V5L2.6,6.1a2.2,2.2,0,0,1,1.2-.3H4L5.9,3A3.1,3.1,0,1,1,9,6.1Zm-5.2.2H3.4L4.1,6.7a1.3,1.3,0,1,1-1,2.5L2.3,8.8A1.7,1.7,0,1,0,3.8,6.3ZM9,1a2,2,0,1,0,2,2A2,2,0,0,0,9,1ZM9,4.7A1.6,1.6,0,1,1,10.6,3,1.6,1.6,0,0,1,9,4.7Z" />
		</symbol>

		<symbol id="email-icon" viewBox="0 0 12 9.4">
		    <path d="M12,8.4a1.1,1.1,0,0,1-1.1,1.1H1.1A1.1,1.1,0,0,1,0,8.4V1.1A1.1,1.1,0,0,1,1.1,0h9.9A1.1,1.1,0,0,1,12,1.1V8.4ZM10.9,0.9H1.1a0.2,0.2,0,0,0-.2.2A2.4,2.4,0,0,0,1.8,3L4.5,5.1A3.3,3.3,0,0,0,6,6H6a3.3,3.3,0,0,0,1.5-.9L10.2,3a2.6,2.6,0,0,0,1-1.7C11.1,1.2,11.2.9,10.9,0.9Zm0.2,2.4-0.5.4L7.8,5.9A3.1,3.1,0,0,1,6,6.9H6a3.1,3.1,0,0,1-1.8-.9L1.3,3.7,0.9,3.2V8.4a0.2,0.2,0,0,0,.2.2h9.9a0.2,0.2,0,0,0,.2-0.2V3.2Z" />
		</symbol>

		<symbol id="rss-icon" viewBox="0 0 12 12">
		    <path d="M11.8,11.8l-0.4.2H10.2a0.5,0.5,0,0,1-.5-0.5A9.8,9.8,0,0,0,.5,2.3,0.5,0.5,0,0,1,0,1.8V0.5A0.5,0.5,0,0,1,.2.2L0.5,0h0A12,12,0,0,1,8.5,3.5,12,12,0,0,1,12,11.4,0.5,0.5,0,0,1,11.8,11.8Zm-4.4,0L7.1,12H5.9a0.5,0.5,0,0,1-.5-0.5A5.5,5.5,0,0,0,.5,6.6,0.5,0.5,0,0,1,0,6.1V4.9A0.5,0.5,0,0,1,.2,4.5H0.6A7.7,7.7,0,0,1,5.4,6.6a7.7,7.7,0,0,1,2.2,4.8A0.6,0.6,0,0,1,7.5,11.8ZM1.6,12a1.6,1.6,0,1,1,1.6-1.6A1.6,1.6,0,0,1,1.6,12Z" />
		</symbol>
	</defs>
</svg>